<?xml version="1.0" ?><!DOCTYPE svg  PUBLIC '-//W3C//DTD SVG 1.1//EN'  'http://www.w3.org/Graphics/SVG/1.1/DTD/svg11.dtd'><svg enable-background="new 0 0 512 512" height="512px" id="Calque_1" version="1.1" viewBox="0 0 512 512" width="512px" xml:space="preserve" xmlns="http://www.w3.org/2000/svg" xmlns:xlink="http://www.w3.org/1999/xlink"><g><g><path d="M323.36,90.353c1.595-1.673,3.24-2.879,2.725-2.166c3.062-3.595,3.437-3.363,3.352-4.311    c1.884-2.39,4.514-4.318,2.292-1.679l5.845-6.476l-3.764,3.604c0.287-0.716,1.791-2.155,3.307-3.624l0.566-0.551l0.14-0.137    l0.069-0.069l0.305-0.276l0.3-0.243l0.293-0.24l0.143-0.119c0.043-0.038,0.183-0.123,0.27-0.18    c0.397-0.253,0.802-0.483,1.193-0.684c0.398-0.209,0.688-0.269,1.016-0.396c0.316-0.099,0.608-0.229,0.891-0.277    c0.562-0.118,1.036-0.219,1.382-0.327c0,0-0.247,0.019-0.68,0.052c-0.435,0.034-1.051,0.097-1.762,0.342    c-0.362,0.116-0.717,0.2-1.203,0.469c-0.23,0.119-0.464,0.249-0.697,0.388l-0.35,0.216c-0.113,0.073-0.252,0.163-0.279,0.193    c-0.213,0.176-0.433,0.358-0.656,0.543l-0.042,0.035l-0.294,0.267l-0.077,0.078l-0.154,0.156l-0.311,0.314    c-1.656,1.677-3.313,3.355-3.313,3.355l0.191-0.476c-1.365,1.671-4.379,4.557-5.467,5.525c0.092-0.233-0.126-0.244,1.037-1.433    c-8.084,8.019-1.419,2.919-7.957,9.742C322.076,91.54,322.602,91.028,323.36,90.353z" fill="#202020"/><path d="M315.471,96.143L313.2,99.49l-4.851,4.573c0.133,0.239-3.149,3.821-0.662,1.661    c0.425-0.484,1.268-1.437,2.01-2.146c-0.124,0.927-6.065,6.466-4.274,5.487c3.62-3.833,4.28-4.316,6.248-6.936    c3.453-3.379,6.033-5.774,7.774-7.223c0.953-1.075,0.85-1.464,2.089-2.801c-0.28,0.291-0.537,0.557-0.859,0.891l-0.742-0.464    c-0.947,1.202-2.023,2.157-3.203,3.362l4.811-6.22c-2.344,1.213-7.431,6.964-9.83,8.895    C314.904,96.391,309.823,100.96,315.471,96.143z" fill="#202020"/><path d="M321.534,92.106c0.035-0.036,0.094-0.095,0.134-0.137C321.628,92.01,321.57,92.07,321.534,92.106z" fill="#202020"/><path d="M283.99,368.013c-1.184-1.161-1.672-1.364-1.912-1.462l13.214,13.191    c-0.255-0.572-3.861-4.571-1.226-2.124c-0.958-1.309-4.56-4.611-5.274-4.897l1.198,0.715c-3.352-2.732-4.821-5.418-2.655-3.617    l-0.26-0.254l-9.616-7.233C280.483,365.495,280.251,364.303,283.99,368.013z" fill="#202020"/><path d="M335.14,94.048c-1.655,1.766-1.809,2.034-1.556,1.898C334.154,95.289,334.685,94.655,335.14,94.048z" fill="#202020"/><path d="M275.21,360.642l-3.012-2.267C273.356,359.332,274.418,360.126,275.21,360.642z" fill="#202020"/><path d="M299.164,373.255c0.025-0.015,0.071-0.003,0.028-0.1l-1.376-0.994c0.018,0.018,0.023,0.023,0.03,0.03    C298.329,372.581,298.764,372.931,299.164,373.255z" fill="#202020"/><path d="M213.902,302.135c-0.292-0.274-0.543-0.512-0.893-0.84C213.328,301.607,213.623,301.883,213.902,302.135z" fill="#202020"/><path d="M337.062,406.89l-6.229-5.511c0.952,0.612-1.931-2.168-0.496-1.13c-0.474-0.42-2.639-2.45-2.154-1.791    l1.209,1.187c-3.59-2.601-1.905-0.536-7.414-5.291c2.893,3.479,4.559,4.608,6.471,6.07c0.598,0.547,1.099,1.005,1.604,1.468    l5.572,4.189L337.062,406.89z" fill="#202020"/><path d="M256.153,178.653l-0.026,0.103C256.172,178.683,256.17,178.659,256.153,178.653z" fill="#202020"/><path d="M256.029,179.17l0.098-0.415C255.89,179.15,254.758,180.434,256.029,179.17z" fill="#202020"/><path d="M276.5,361.291c-0.172,0.012-0.623-0.215-1.29-0.648l2.249,1.689    C277.191,362.041,276.837,361.656,276.5,361.291z" fill="#202020"/><path d="M282.061,364.691l5.015,4.874l2.08,1.566C287.166,369.337,284.886,367.189,282.061,364.691z" fill="#202020"/><path d="M221.422,310.236c-10.319-10.167,3.099,1.934-1.468-2.912c-2.912-2.776-4.192-3.503-6.052-5.189    c8.36,7.889-2.012-0.191,6.329,7.856c-1.666-0.666-6.454-5.364-9.099-8.279c-2.666-3.629,3.103,2.396,4.288,2.637    c-3.367-3.209-2.875-2.542-4.539-3.669c-5.05-5.274-11.273-10.09-13.688-13.84c-3.843-3.631-3.828-3.154-6.23-5.05    c-0.944,0.088,5.287,5.828,6.266,7.619c-0.243-0.33-0.716-0.977-0.481-0.887l3.122,3.339c-2.887-3.246,0.941-0.09,2.621,1.51    c1.203,1.182,3.596,3.528,3.127,3.345l-1.917-1.694c2.161,2.486,5.503,4.751,7.678,7.484c0.013,0.244-0.97-0.63-1.183-0.699    c3.102,2.397,5.733,5.07,10.052,8.891l-2.871-1.848c3.822,2.689,11.033,10.223,15.843,15.63c-0.48-0.653-1.44-1.734-0.729-1.221    c3.123,2.879,5.039,5.496,3.38,4.376c3.355,2.507,10.813,11.526,15.359,14.971l20.968,15.771    c-0.753-0.623-1.542-1.306-2.323-2.043c-1.221-2.118-2.176-2.964,1.174-0.461c-3.11-2.635-2.373-1.177-6.708-5.475    c1.919,1.468,2.862,1.38-1.22-2.808c-10.784-9.887-18.91-15.461-29.215-24.462c-0.01-0.702-7.687-8.185-11.289-11.949    c1.777,1.035,4.617,3.663,7.529,6.425c-1.768-1.793-4.811-4.88-7.069-7.169L221.422,310.236z" fill="#202020"/><path d="M246.584,333.074c-0.228-0.289-0.478-0.574-0.736-0.864C245.966,332.385,246.183,332.645,246.584,333.074z    " fill="#202020"/><path d="M231,318.478c0.049,0.022,0.046,0,0.073-0.002c-0.307-0.289-0.613-0.578-0.927-0.873    C230.447,317.912,230.787,318.26,231,318.478z" fill="#202020"/><path d="M274.86,358.089c0.711,0.514,1.193,0.94,1.906,1.454c-0.405-0.352-0.911-0.793-1.398-1.218    C274.886,357.937,274.632,357.777,274.86,358.089z" fill="#202020"/><path d="M276.318,360.763l-0.47-0.186c0.252,0.276,0.429,0.47,0.652,0.713    C276.648,361.286,276.635,361.145,276.318,360.763z" fill="#202020"/><path d="M185.407,267.967l-1.057-0.906C184.948,267.645,185.233,267.87,185.407,267.967z" fill="#202020"/><path d="M210.599,298.238c3.596,3.529,0.942-0.09,5.984,4.947l-1.447-1.511c3.836,3.395,10.09,9.852,14.404,14.13    c-0.69-0.279,2.355,2.855,1.534,2.672c3.012,2.861,5.991,5.699,7.833,6.883c1.711,1.927,4.766,4.4,6.942,6.851    c-0.783-1.17,3.947,2.639-1.918-2.754c0.48,0.428,0.24,0.099,0.716,0.521c-3.357-3.896-5.268-4.893-8.398-8.011    c-1.677-2.058,3.362,2.747,1.676,0.908c-4.079-3.724-12.011-12.47-12.47-11.494c-2.889-2.788-3.123-3.339-3.838-4.316    c-5.255-3.727-16.337-16.993-17.273-15.976c1.678,1.602,4.329,4.293,6.943,6.489L210.599,298.238z" fill="#202020"/><path d="M268.826,352.156c-0.216-0.222-0.504-0.518-0.684-0.702C268.345,351.662,268.596,351.92,268.826,352.156z" fill="#202020"/><path d="M310.948,399.941l-2.129-0.852c-8.635-8.33-11.521-11.576-18.964-18.967    c-0.479-0.655,0.476,0.189,0.96,0.618c-5.288-5.141-12.955-13.076-17.045-16.578c-1.654-1.664-5.806-6.223-3.97-4.762    c-0.863-0.751-1.842-1.619-2.749-2.568c-0.017-0.476,2.144,2.012,2.385,1.878c-0.721-0.752-0.963-1.083-1.205-1.18    c1.437,1.041-0.506-2.064,5.255,3.726c1.7,2.773-4.067-3.943-3.339-2.031c1.911,1.92,1.918,1.468,2.154,1.56    c2.428,2.455,2.215,2.539,1.949,2.544c1.119,0.752,3.935,4.078,5.505,5.092c4.793,4.701-0.703,0.186,2.405,3.279l2.387,1.188    l5.042,5.269c7.674,7.252-0.032-2.104,8.838,6.088c-1.434-0.808,1.462,3.139,5.308,7.234c-2.397-2.354-7.18-6.354-10.068-9.599    c3.854,4.793-6.007-5.894-4.3-3.112c2.391,1.882,5.987,5.41,8.628,8.325l-0.966-0.854c2.891,3.018,5.754,4.627,9.592,8.944    c2.046,2.007,1.497,1.796,1,1.58C309.426,398.387,311.075,399.802,310.948,399.941z M306.409,395.652l-2.651-2.77    C304.302,393.625,305.316,394.632,306.409,395.652z" fill="#202020"/><path d="M277.641,134.13c0.284-0.253,0.613-0.545,0.871-0.775C278.305,133.508,277.98,133.807,277.641,134.13z" fill="#202020"/><path d="M281.246,381.936l-1.551-1.59C280.288,380.979,280.788,381.485,281.246,381.936z" fill="#202020"/><path d="M244.031,348.679l-2.434-2.153C242.511,347.423,243.276,348.076,244.031,348.679z" fill="#202020"/><path d="M258.879,152.809l-0.081,0.072c-0.117,0.14-0.207,0.247-0.33,0.394L258.879,152.809z" fill="#202020"/><path d="M174.762,276.606c-0.299-0.399-0.645-0.838-1.146-1.41C173.621,275.32,174.056,275.84,174.762,276.606z" fill="#202020"/><path d="M244.479,349.076c-0.054-0.063-0.085-0.1-0.128-0.15c-0.101-0.077-0.212-0.162-0.32-0.246L244.479,349.076    z" fill="#202020"/><path d="M295.019,399.206c0.357,0.316,0.682,0.604,1.065,0.945C295.598,399.688,295.285,399.42,295.019,399.206z" fill="#202020"/><path d="M294.505,395.293c0.377,0.347,0.741,0.674,1.036,0.917L294.505,395.293z" fill="#202020"/><path d="M350.825,423.069l-2.2-2.027C349.674,422.071,350.327,422.658,350.825,423.069z" fill="#202020"/><path d="M299.706,401.279c0.15,0.096,0.301,0.191,0.409,0.246C299.805,401.252,299.631,401.148,299.706,401.279z" fill="#202020"/><path d="M292.858,122.485c-0.047,0.049-0.098,0.102-0.126,0.13l0.017,0.124L292.858,122.485z" fill="#202020"/><path d="M297.124,116.473c0.59-0.622,1.204-1.27,1.808-1.906C298.239,115.253,297.585,115.943,297.124,116.473z" fill="#202020"/><path d="M173.835,238.25c0.646-0.473,2.063-1.682,1.549-0.971C176.33,236.083,175.955,235.851,173.835,238.25z" fill="#202020"/><path d="M286.305,136.54c0.256-0.417,0.613-0.898,0.973-1.38C286.582,136.03,285.969,136.788,286.305,136.54z" fill="#202020"/><path d="M287.278,135.16c0.341-0.432,0.705-0.894,1.011-1.281C287.924,134.32,287.583,134.753,287.278,135.16z" fill="#202020"/><path d="M167.262,255.861c-0.093,0.113-0.12,0.295-0.114,0.544C167.285,256.323,167.256,256.132,167.262,255.861z" fill="#202020"/><path d="M300.528,113.162c0.191-0.476,7.955-8.86,1.091-2.142c-0.184-0.707,4.15-4.563,5.852-6.484    c-1.42,1.211,0.368-0.939-0.189-0.699c-0.845,0.952-1.784,2.147-3.301,3.6c-0.886,0.479,1.229-1.911,3.063-3.594    c-2.401,1.933,2.397-3.102-0.85-0.215c-6.398,6.713-10.87,11.507-14.831,16.768c3.63-3.844,7.678-8.157,10.922-11.043    l-0.903,1.673c-3.803,3.126-5.688,5.517-9.132,8.888l7.858-7.449c3.905-3.265,1.58-0.793-1.176,2.103    C299.631,113.876,300.283,113.27,300.528,113.162z" fill="#202020"/><path d="M298.746,121.695l0.139-0.117c0.099-0.126,0.229-0.274,0.284-0.362L298.746,121.695z" fill="#202020"/><path d="M343.431,431.244l-0.804-0.512C343.242,431.216,343.457,431.339,343.431,431.244z" fill="#202020"/><path d="M292.318,124.397l0.005-0.005C292.276,124.448,292.263,124.46,292.318,124.397z" fill="#202020"/><path d="M338.696,426.185c0.033,0.014,0.067,0.025,0.12,0.055C338.745,426.193,338.735,426.204,338.696,426.185z" fill="#202020"/><path d="M326.029,430.106c0.013,0.049,0.005,0.074,0.058,0.163C326.457,430.597,326.306,430.41,326.029,430.106z" fill="#202020"/><path d="M338.648,426.209c0.012-0.012,0.013-0.034,0.048-0.023C338.671,426.185,338.63,426.17,338.648,426.209z" fill="#202020"/><path d="M257.694,348.079c0,0,0.185,0.317,0.517,0.777C258.4,348.973,258.287,348.778,257.694,348.079z" fill="#202020"/><path d="M272.825,364.349c0.085,0.115,0.136,0.183,0.244,0.33L272.825,364.349z" fill="#202020"/><path d="M168.388,240.231c-0.782,0.771-1.355,1.364-1.831,1.873C167.134,241.546,167.746,240.932,168.388,240.231z    " fill="#202020"/><path d="M338.816,426.24c0.205,0.123,0.48,0.314,0.917,0.647C339.254,426.518,338.987,426.337,338.816,426.24z" fill="#202020"/><path d="M231.811,326.083c0.182,0.152,0.353,0.296,0.525,0.44l-0.268-0.306L231.811,326.083z" fill="#202020"/><path d="M223.9,317.606c0.323,0.235,0.497,0.318,0.693,0.436c-3.084-2.764-8.283-8.311-9.329-8.537    c1.002,0.982,5.907,6.367,4.791,5.73c2.141,1.936,4.867,5.236,6.032,6.267c-3.123-3.57-0.016-0.707,2.381,1.415    c1.935,2.174-0.716-0.058,0.978,1.788l4.8,4.709l-4.087-4.195l1.652,0.864c-0.167-0.14-0.281-0.235-0.46-0.385    C224.161,318.874,231.332,324.526,223.9,317.606z" fill="#202020"/><path d="M224.594,318.042c0.463,0.414,0.878,0.769,1.219,1.026C225.145,318.413,224.849,318.197,224.594,318.042z" fill="#202020"/><path d="M196.616,288.766c-0.378-0.341-0.788-0.712-1.303-1.178C195.559,287.811,196.128,288.325,196.616,288.766z    " fill="#202020"/><path d="M292.605,374.711c0.007,0.239,3.851,4.561,4.08,4.185c-1.181-1.243-2.369-2.495-3.563-3.753    L292.605,374.711z" fill="#202020"/><path d="M206.23,210.103c-0.463,0.445-0.923,0.898-1.375,1.359c-0.08,0.115-0.158,0.226-0.218,0.313    C204.959,211.541,205.804,210.585,206.23,210.103z" fill="#202020"/><path d="M218.652,314.115c0.794,0.702,1.176,0.988,1.404,1.12C219.547,314.774,219.06,314.366,218.652,314.115z" fill="#202020"/><path d="M207.206,210.566c0.666-0.493,1.651-1.215,1.888-1.221c1.188-1.182,1.861-2.173,3.011-3.436    C210.787,207.314,209.181,208.859,207.206,210.566z" fill="#202020"/><path d="M212.197,205.805c-0.032,0.036-0.064,0.071-0.093,0.104L212.197,205.805z" fill="#202020"/><path d="M290.304,372.153c-0.372-0.33-0.755-0.671-1.148-1.021l0.646,0.484c-0.908-0.97-1.812-1.935-2.717-2.9    c-0.357-0.319-0.743-0.668-1.205-1.108c0.193,0.171,0.366,0.28,0.486,0.334c-0.293-0.316-0.579-0.626-0.865-0.935    c-2.549-1.924-8.344-7.26-10.133-8.682c-2.259-1.99-4.935-4.514-6.541-6.169c1.505,1.518,3.574,3.462,3.146,2.686    c-2.889-3.248-3.86-5.26-9.603-10.109l3.112,3.099l-7.655-6.311c-2.168-2.726,3.82,3.149,5.032,3.877    c-5.763-5.101-9.395-10.503-12.495-12.438c-0.009-0.7-0.029-1.871-3.627-5.401c2.176,2.964-2.39-1.883-0.703,0.646    c-1.429-1.034-3.852-4.101-4.315-4.047l0.477,0.19c-5.539-6.633-8.388-7.768-11.273-10.09    c-7.428-7.146-10.55-10.716-16.551-16.602c-0.002-0.464-0.984-2.719-3.393-5.078c-1.421-0.796-6.944-6.029-7.894-6.177    c4.095,4.43,3.824,3.151,6.469,5.609c1.704,2.544-0.223,0.607,2.427,3.76c-2.178-2.505-10.799-10.36-12.969-13.319l0.96,0.851    c-3.854-4.333-3.645-6.107-11.064-12.327l-3.5-3.008c0.197,0.117,0.262,0.088,0.381,0.136c-2.643-2.685-3.486-3.777-4.449-4.889    c-0.242-0.279-0.485-0.554-0.778-0.866c-0.315-0.335-0.67-0.698-1.1-1.121c-0.862-0.848-2.013-1.92-3.817-3.545    c0.557,0.502,0.314,0.17,0.87,0.673c-0.708-0.805-1.452-1.583-2.23-2.354c1.419-1.432,2.693-2.86,3.939-4.276    c0.634-0.72,1.247-1.418,1.833-2.083c0.54-0.603,1.054-1.177,1.536-1.715c1.881-1.213-0.038,0.696-0.753,1.895    c6.026-5.768,11.816-12.705,15.07-16.774l3.997-3.605c-2.116,2.392-4.519,5.5-3.629,5.014c2.023-2.157,1.461-1.911,4.481-4.803    c-0.29,0.718-1.332,2.158-2.452,3.817c6.472-5.756,0.608-2.125,5.543-5.748c1.926-1.917,2.729-3.345,2.681-3.813l3.818-3.143    c0.058-0.716,4.335-5.031,7.101-7.896c0.203-0.485-2.617,1.916-3.558,3.11c-0.048-0.469,2.826-3.585,4.757-5.507    c1.396-0.016,12.513-12.713,11.049-9.623c8.429-8.878,20.516-21.105,25.939-27.104c2.074-1.693,5.922-5.522,3.945-2.897    c6.969-6.963,9.854-11.264,16.956-17.989c0.658-0.486-3.119,3.132-2.644,3.116c4.243-4.795,8.515-7.93,15.343-15.126    c-1.168,1.192-1.369,1.678-1.462,1.914c-0.236,0.009,2.636-3.11,4.339-5.035c1.079-0.96-1.274,1.44-0.615,0.956    c13.88-13.21,23.262-24.467,36.765-37.908c-3.855,3.838-4.854,5.749-4.707,5.977l3.777-3.76c1.224-1.681,4.055-4.51,6.25-7.047    c0.377-0.205,1.62-1.264,0.554,0.019c3.954-3.491,6.652-6.607,9.533-9.961c0.722-0.836,1.456-1.688,2.217-2.569l0.283-0.328    l0.17-0.263c0.115-0.171,0.25-0.33,0.307-0.535c0.184-0.369,0.277-0.784,0.313-1.202c0.03-0.42-0.011-0.855-0.142-1.268    c-0.078-0.194-0.125-0.451-0.223-0.55c-0.04-0.068-0.072-0.14-0.1-0.217l-0.021-0.06l-0.085-0.101l-0.17-0.203l-0.343-0.412    l-0.043-0.052l-0.006-0.007c0.239,0.264,0.063,0.072,0.116,0.13l-0.01-0.006l-0.018-0.013l-0.07-0.052l-0.139-0.107l-0.27-0.231    c-0.108-0.05-0.214-0.104-0.319-0.162c-0.226-0.156-0.389-0.159-0.554-0.246c-0.039-0.053-0.254-0.074-0.456-0.095    c-0.197-0.024-0.396-0.047-0.596-0.071c0,0,0.245,0.003,0.674,0.008c0.091,0.005,0.261-0.006,0.319,0.013    c0.062,0.019,0.129,0.035,0.203,0.048s0.156,0.021,0.248,0.027c0.105,0.042,0.216,0.086,0.332,0.132    c0.253,0.063,0.479,0.222,0.731,0.387l0.098,0.06l0.051,0.03l0.025,0.015l0.006,0.004l0.003,0.002    c0.087,0.095-0.114-0.128-0.092-0.104l0.014,0.014l0.228,0.236c0.152,0.159,0.309,0.32,0.467,0.485    c0.276,0.39,0.667,1.11,0.756,1.874c0.058,0.763-0.08,1.558-0.413,2.247c-0.212,0.328-0.37,0.617-0.648,0.947    c-0.271,0.321-0.528,0.625-0.766,0.906c-0.95,1.122-1.583,1.871-1.583,1.871l3.055-2.414l-4.438,5.277    c3.14-2.688,5.129-5.627,5.742-6.004c-0.066,0.245-0.258,0.515-0.477,0.806c-0.109,0.145-0.223,0.295-0.337,0.446    c-0.11,0.124-0.221,0.248-0.328,0.367c-0.424,0.479-0.766,0.899-0.695,1.016c0.734-0.683,1.259-1.117,1.754-1.783    c0.254-0.285,0.399-0.595,0.532-0.883c0.133-0.287,0.266-0.545,0.31-0.827c0.057-0.272,0.112-0.537,0.169-0.806    c0.006-0.272,0.013-0.55,0.02-0.848c0.026-0.294-0.05-0.605-0.096-0.946c-0.029-0.346-0.146-0.704-0.286-1.104    c0.487,1.006,0.67,2.367,0.271,3.746c-0.196,0.68-0.509,1.385-0.999,1.99c-0.113,0.149-0.242,0.332-0.35,0.455l-0.321,0.363    c-0.217,0.243-0.436,0.488-0.657,0.736c-1.78,1.981-3.762,4.103-5.77,6.217c-4.036,4.208-8.107,8.453-10.958,11.426    c-0.861,0.971,0.614-0.954,0.704-1.188c-2.352,2.399-3.997,3.605-6.865,6.717c-1.559,2.154,1.636-1.198,3.141-2.641    c0.056,0.462-0.701,1.188-2.303,2.868c-0.702,0.011-9.133,8.888-11.669,10.582c-8.661,8.878,2.296-0.509-6.415,7.902l-2.952,2.162    c-4.664,5.275-10.821,11.974-16.529,17.514l1.172-1.198c0.62-0.958-0.788,0.242-1.452,0.733    c-4.419,4.081-7.758,8.379-10.729,10.559c-4.428,5.267-12.198,13.659-17.523,19.418c-2.016,0.975,6.788-7.671,8.769-10.303    l-5.043,5.047c3.112-3.125,4.146-4.555,5.718-6.721c-4.518,4.325-5.516,6.234-9.575,10.558c0.185-0.467-0.462,0.005-2.4,1.935    l-0.203,0.895c-0.064,0.007-0.304,0.195-0.923,0.77l-7.246,7.669c1.73-1.434,2.108-1.21,4.038-3.132    c-0.889,0.486,0.705-1.188,2.638-3.111c-1.463,1.916,2.071-1.689,2.216-1.462c-3.874,3.856-8.577,8.652-11.016,11.28l-1.142,0.505    c-3.764,3.603-7.476,7.671-10.067,10.076l0.618-0.957c-4.517,4.322-8.663,8.879-12.898,12.492    c-3.578,4.306-8.238,9.572-11.079,13.174c-1.312,2.134-12.083,11.051-15.948,16.074c-0.344,0.255,2.743-3.362,4.104-5.034    c-3.02,2.893-4.859,5.754-6.218,6.248c6.78-6.489-0.702,0.012,2.164-3.1c-3.098,3.114-6.295,6.467-7.664,8.146    c5.023-5.031-1.188,2.383,3.713-2.895c-1.704,2.05-3.782,4.376-6.013,6.741c-0.713,0.75-1.44,1.516-2.165,2.278    c-0.529,0.537-1.074,1.06-1.651,1.583c0.101,0.113,0.195,0.22,0.289,0.325c-0.374,0-0.264,0.284,0.545,1.247    c0.019,0.019,1.1,0.559,1.081,0.539c0.499,0.548-0.095,0.114-0.621-0.239c-0.515-0.344-0.963-0.607,0.2,0.652    c0.423,0.307,0.624,0.429,1.475,1.228c0.716,0.664,1.469,1.391,2.239,2.15c1.524,1.536,3.152,3.178,4.701,4.738    c3.092,3.125,5.914,5.881,7.339,6.45c3.133,3.81-6.948-6.264-2.131-0.617c-3.353-2.734-7.197-7.287-8.628-7.863    c3.105,2.861,0.728,1.451,2.648,3.38l3.591,3.063l-0.72-0.752c5.986,5.18,14.639,14.219,21.837,21.28    c6.47,5.608,11.25,9.144,18.447,16.435c-2.391-1.886,5.773,6.26,0.75,2.162c3.129,3.575,6.703,6.62,6.955,6.5    c-2.885-3.014-0.977-1.098-3.37-3.674c1.903,1.451,5.758,5.326,7.198,7.062c-0.719-0.752-0.483-0.429-0.716-0.521    c3.369,3.674,1.913,1.463,4.552,3.913c0.49,1.124,5.534,5.703,7.694,8.191l3.821,2.918c-2.148-1.555,3.12,3.337,3.378,4.142    c2.626,2.207,5.02,3.865,8.62,7.625c-1.675-1.365,3.133,3.581,2.896,3.946c6.013,6.59,11.257,9.614,16.793,16.014    c-0.256-0.115-1.658-1.121,0.011,0.699c1.458,1.289,3.828,3.73,5.331,5.168l-0.055-0.038c0.031,0.025,0.052,0.041,0.085,0.068    c0.736,0.704,1.227,1.119,1.317,1.063c2.811,2.222,4.41,3.217,9.612,7.919c-0.019-0.708-4.333-4.755-6.255-6.454l-1.904-1.225    c-0.975-2.016-4.557-4.375-5.52-5.689c3.581,2.36,11.986,11.065,17.493,15.823c-2.648-3.61-9.38-10.493-15.378-16.374l2.409,2.823    l-3.114-3.102l2.641,3.375c-2.88-3.008-5.519-5.459-8.158-8.14c3.122,3.107,3.859,4.797,2.173,2.959    c-3.133-3.81-3.839-3.396-6.472-6.07c1.446,1.509,3.361,3.436,1.926,2.395c-4.818-5.646-6.501-6.789-10.816-11.99    c0.015,1.165-6.002-5.888-7.187-6.129l2.16,2.256l-5.031-4.335c-3.853-4.79,4.304,3.348-1.94-3.559    c-6.01-6.126-6.457-5.365-11.272-10.091c1.913,1.231,5.988,4.722,9.827,8.581l-2.166-2.495c1.431,1.035,6.714,6.401,9.351,9.079    c-4.782-4,1.935,2.175,3.626,4.479c0.697,0.037-2.174-2.73,1.419,0.334c-3.124-3.112-3.608-3.541-7.45-7.632    c8.425,8.725,8.854,6.566,16.063,14.327c-3.6-3.301,0.727,1.679,0.982,2.254c1.663,1.584,5.034,4.799,6.471,6.07l-0.749-1.702    c4.565,4.155,5.072,6.679,10.596,11.22c0.938,0.369-4.33-4.523-3.369-3.673c7.185,6.586,8.897,9.834,14.653,16.307    c0.488,0.203,0.719-0.17,3.109,1.716c-0.957-0.386,0.479,1.343-2.137-0.854c1.924,2.165,4.555,4.377,6.47,6.069    c-4.088-4.424,2.152,1.33,3.107,1.942c2.156,2.253-0.957-0.387-2.396-1.659c1.693,1.846,3.375,4.37,4.808,4.946    c-0.231,0.371-5.738-4.154-9.098-7.357l2.163,2.26c-1.677-1.369-1.919-1.698-4.067-3.94c1.916,2.383,1.446,2.428,0.731,2.142    c-0.238-0.325,0.228,0.086,0.002-0.227c-1.691-1.844-3.13-3.118-2.88-2.548c-1.994-1.186,2.199,2.705,3.195,4.104    c0.932,0.878,1.864,1.757,2.778,2.617l10.483,7.886c4.075,3.772,5.528,5.848,8.28,8.991l1.156,0.462    c3.378,3.45,6.49,6.782,3.862,5.033c-0.007-0.238-0.485-0.662-1.21-1.42c-0.146-0.051-0.35-0.188-0.593-0.377    c-0.092-0.051-0.151-0.069-0.229-0.108c3.773,3.539,6.13,5.748,6.348,5.951c-6.713-5.704-0.94,0.32-2.596-0.103    c0,0,1.618,1.518,3.236,3.035c0.404,0.38,0.809,0.759,1.188,1.114c0.19,0.178,0.373,0.35,0.547,0.513    c0.253,0.286,0.492,0.556,0.713,0.805c0.068,0.078,0.134,0.153,0.196,0.225c0.02,0.017,0.083,0.108,0.14,0.193    c0.056,0.083,0.108,0.163,0.16,0.241c0.204,0.316,0.371,0.604,0.501,0.842c0.263,0.481,0.381,0.759,0.367,0.744    c-0.256-0.656-0.598-1.273-0.888-1.76c-0.063-0.104-0.172-0.282-0.195-0.31c-0.034-0.049-0.066-0.095-0.099-0.14    c-0.063-0.09-0.12-0.173-0.173-0.248c-0.102-0.153-0.184-0.277-0.249-0.376l-0.022-0.036l-0.003-0.005l-0.001-0.002l-0.286-0.317    l-0.007-0.008l-0.012-0.016l-0.042-0.058c-0.024-0.036-0.045-0.066-0.063-0.091c-0.062-0.102-0.047-0.123,0.027-0.083    c0.037,0.02,0.089,0.055,0.152,0.103l0.051,0.038l0.003,0.002l0.299,0.33l0.006,0.006l0.013,0.012l0.025,0.024    c0.034,0.034,0.071,0.07,0.11,0.109c0.161,0.165,0.341,0.346,0.568,0.603c0.417,0.577,0.847,1.284,1.18,1.996    c0.224,0.604,0.437,1.23,0.576,1.817c0.098,0.595,0.161,1.153,0.202,1.608c-0.042,0.127-0.119,0.432-0.187,0.878    c-0.08,0.445-0.131,1.033-0.36,1.7c-0.102,0.335-0.218,0.695-0.349,1.071c-0.168,0.361-0.36,0.74-0.57,1.129    c-0.196,0.4-0.458,0.772-0.758,1.139c-0.148,0.184-0.3,0.369-0.453,0.558l-0.237,0.277l-0.03,0.035l-0.353,0.318l-0.037,0.031    l-0.074,0.064c-0.2,0.173-0.403,0.349-0.608,0.525c-0.42,0.31-1.046,0.692-1.602,0.977l-0.434,0.213l-0.367,0.131l-0.744,0.238    c-0.495,0.169-1.001,0.247-1.507,0.297c-1.007,0.152-1.997,0.033-2.897-0.106c-0.89-0.226-1.712-0.463-2.357-0.849l0.435,0.106    c-0.597-0.332-1.277-0.66-1.863-1.193c-0.299-0.248-0.624-0.53-0.904-0.793c-0.154-0.161-0.312-0.326-0.474-0.495    c-0.656-0.665-1.368-1.387-2.096-2.123c-1.47-1.459-3.028-2.955-4.345-4.178c0,0.232-3.824-2.459-5.73-3.683    c4.228,4.487,1.503,2.04,1.638,2.604c-0.432-0.47-1.238-1.285-1.377-1.335c-0.722-0.525,0.716,0.978,0.724,1.215    c2.396,2.235,4.798,4.532,6.896,6.447c1.05,0.957,2.023,1.818,2.883,2.528c0.264,0.214,0.517,0.42,0.758,0.615    c0.447,0.357,0.891,0.675,1.313,0.951c0.865,0.526,1.724,0.842,2.421,1.058c-0.974-0.528-1.895-0.997-2.643-1.63    c-0.37-0.287-0.802-0.64-1.09-0.888l-0.51-0.427c-0.688-0.565-1.407-1.144-2.13-2.012c0.655,0.492,1.327,1.051,2.027,1.672    c0.174,0.156,0.351,0.315,0.53,0.477l0.321,0.291c0.203,0.169,0.407,0.34,0.613,0.512c0.813,0.707,1.8,1.236,2.849,1.708    c2.136,0.838,4.668,1.056,7.158,0.308c0.311-0.093,0.622-0.194,0.932-0.303c0.377-0.167,0.759-0.358,1.133-0.566    c0.374-0.209,0.741-0.437,1.095-0.679l0.121-0.084l0.046-0.037l0.093-0.075l0.187-0.15l0.377-0.306l0.047-0.038l0.024-0.02    l0.444-0.402l0.021-0.023l0.176-0.195l0.345-0.4c0.457-0.543,0.903-1.102,1.231-1.764c0,0,0.135-0.202,0.336-0.506    c0.205-0.305,0.455-0.724,0.637-1.179c0.198-0.449,0.378-0.913,0.504-1.265c0.118-0.353,0.161-0.598,0.161-0.598    s0.018-0.19,0.049-0.521c0.017-0.333,0.078-0.808,0.042-1.374c-0.044-0.565-0.11-1.231-0.242-1.925    c-0.192-0.702-0.383-1.382-0.712-2.151c-0.209-0.435-0.443-0.864-0.693-1.271c-0.125-0.204-0.254-0.402-0.384-0.595l-0.198-0.282    c-0.081-0.115-0.068-0.084-0.107-0.133c-0.213-0.24-0.412-0.465-0.583-0.657c-0.146-0.161-0.29-0.321-0.434-0.479l-0.034-0.031    l-0.065-0.062c-0.044-0.039-0.084-0.077-0.123-0.112c-0.076-0.07-0.144-0.133-0.198-0.184c-0.11-0.102-0.173-0.159-0.173-0.159    c0.221,0.183,0.404,0.323,0.563,0.436l0.058,0.041l0.029,0.021l0.41,0.452l0.003,0.003l0.007,0.005l0.013,0.011l0.1,0.082    c0.065,0.05,0.126,0.097,0.184,0.141c0.119,0.085,0.227,0.16,0.338,0.24c0.056,0.039,0.113,0.08,0.173,0.123    c0.081,0.076,0.258,0.303,0.392,0.477c0.291,0.383,0.615,0.856,0.958,1.48c0.081,0.155,0.166,0.319,0.255,0.491    c0.057,0.142,0.115,0.29,0.178,0.446c0.12,0.315,0.243,0.669,0.363,1.064c0.408,1.553,0.845,3.979-0.373,7.149    c0.205-0.365,0.687-1.35,0.878-2.804c0.085-0.731,0.179-1.567,0.063-2.479c-0.045-0.456-0.096-0.932-0.19-1.413    c-0.12-0.478-0.265-0.97-0.431-1.465c-0.196-0.828-1.259-2.631-1.809-3.299l-0.472-0.544l-0.571-0.637l-0.132-0.126l-0.264-0.251    c-0.701-0.673-1.391-1.355-1.989-2l-1.657-0.888c0.704,0.275-4.579-5.09-0.503-1.6c0,0,1.617,1.46,3.234,2.92    c0.405,0.365,0.81,0.729,1.188,1.072c0.095,0.085,0.188,0.17,0.279,0.252l0.135,0.122l0.066,0.06l0.033,0.03l0.008,0.007    l0.498,0.55l0.015,0.017c0.157,0.173,0.306,0.337,0.443,0.488c0.068,0.076,0.134,0.148,0.196,0.218l0.023,0.025l0.064,0.087    l0.125,0.173c0.08,0.116,0.158,0.229,0.233,0.339c0.298,0.444,0.537,0.852,0.723,1.19c0.373,0.688,0.531,1.079,0.515,1.051    c0.02,0.031-0.135-0.419-0.453-1.099c-0.157-0.336-0.354-0.726-0.587-1.13c-0.12-0.198-0.245-0.404-0.371-0.613l-0.117-0.188    l-0.059-0.099c-0.155-0.264-0.311-0.527-0.427-0.725l-0.002-0.003l-0.52-0.575l-0.003-0.004l-0.007-0.009l-0.012-0.017    l-0.024-0.032l-0.043-0.061c-0.028-0.037-0.052-0.07-0.072-0.097c-0.039-0.055-0.062-0.085-0.062-0.085s0.082,0.08,0.227,0.221    l0.027,0.026c0.18,0.198,0.362,0.4,0.551,0.608l0.056,0.066c0.039,0.046,0.081,0.097,0.127,0.15    c0.09,0.107,0.191,0.228,0.303,0.36l0.085,0.101l0.044,0.052c0.008,0.009,0.029,0.035,0.085,0.114c0.18,0.25,0.36,0.518,0.538,0.8    c0.354,0.563,0.695,1.188,0.993,1.842c0.232,0.567,0.384,1.072,0.551,1.644c0.073,0.28,0.147,0.563,0.222,0.847    c0.047,0.286,0.087,0.577,0.122,0.869c0.368,2.341-0.16,4.706-0.775,6.359c-0.354,0.812-0.712,1.47-0.968,1.919    c-0.248,0.457-0.441,0.679-0.441,0.679s0.037-0.059,0.104-0.16c0.068-0.1,0.154-0.25,0.246-0.439    c0.189-0.374,0.429-0.882,0.641-1.395c0.229-0.507,0.373-1.036,0.468-1.439c0.093-0.401,0.154-0.669,0.154-0.669    c-0.12,0.45-0.253,0.885-0.395,1.301c-0.152,0.412-0.352,0.797-0.536,1.173c-0.19,0.375-0.387,0.733-0.587,1.074    c-0.209,0.333-0.448,0.631-0.675,0.927c-0.23,0.293-0.462,0.571-0.692,0.835l-0.173,0.194l-0.087,0.096l-0.021,0.023l-0.011,0.012    l-0.576,0.521l-0.02,0.016l-0.153,0.128c-0.203,0.167-0.394,0.323-0.572,0.471c-1.017,0.754-2.554,1.575-3.337,1.787    c-0.857,0.261-1.606,0.482-2.27,0.542c-1.335,0.147-2.272,0.109-3.004-0.035c-0.731-0.132-1.26-0.234-1.766-0.446    c-0.508-0.194-1.013-0.4-1.678-0.686c-0.635-0.343-1.486-0.746-2.515-1.509c-0.253-0.198-0.521-0.416-0.805-0.657    c-0.14-0.123-0.284-0.249-0.435-0.38l-0.224-0.204l-0.104-0.104c-0.257-0.25-0.549-0.535-0.883-0.861    c-0.677-0.645-1.538-1.438-2.647-2.434c-3.1-2.168-5.981-4.949-11.025-10.22c3.836,3.627,0.712,0.055,2.387,1.188    c-3.612-4.001-5.281-4.901-7.438-6.694c-0.724-1.216-1.212-2.106,2.152,1.33c0.942-0.091-4.562-4.384-4.341-5.226    c-11.28-11.248-10.741-7.311-23.245-21.142l0.708,0.28c-8.628-8.095-13.196-13.175-21.107-20.749l-5.552-6.641    c1.447,1.279,5.52,4.538,4.072,2.564c2.414,3.517,5.754,6.471,8.653,9.961c0.469,0.184-0.729-1.221-1.207-1.876    c1.924,1.933,2.644,3.147,5.286,5.599c-0.01-0.236-2.65-3.151-0.49-1.124l3.125,3.803c4.797,4.474,3.095,1.471,8.383,7.071    c-1.314-0.71-3.819-2.34-6-4.375c2.422,2.554-3.499-3.134-1.41-0.683c4.032,3.136,5.407,5.222,10.453,9.706    c-0.622-0.497-0.857-0.558-2.058-1.703l6.725,7.104c-1.448-1.973,6,5.424,5.746,4.391c-7.207-7.53-5.277-5.129-13.453-13.747    c2.465,2.289,5.927,4.958,7.728,6.029c0.058,0.088,0.167,0.222,0.418,0.487c1.669,0.897,0.464-0.514,1.163-1.163    c-4.313-3.354-6.48-6.311-11.277-10.556c-1.219-0.481,2.152,3.094,4.495,5.245l-4.228-3.738l0.954,0.614l-9.985-10.232    c1.935,1.896,2.8,2.332,3.96,3.171c-1.29-1.319-2.484-2.709-3.751-4.189c-0.063,0.641-0.494,0.707-1.76-0.571    c-6.42-6.589-9.72-10.521-11.718-13.323c-0.258-0.241-0.549-0.514-0.782-0.732c0.729,1.451-5.268-3.97-7.652-5.617    c0.473-0.272-3.128-3.575-4.812-5.641c-1.426-0.569-0.686,1.353,1.247,3.985c4.79,4.007,2.859,2.069,5.493,3.592l7.425,6.685    l-1.919-1.235c3.371,3.672,7.204,6.604,6.502,6.789c-2.157-1.564-5.05-4.816-7.192-6.365l2.166,2.492    c-4.546-3.673-1.686-2.527-6.966-7.198c1.452,2.208-0.478-0.424-2.862-2.302c1.447,1.974,8.868,8.653,6.73,7.8    c-2.867-2.307-7.952-9.458-12.014-12.242l0.24,0.095c-4.967-5.134-7.109-6.542-9.23-8.202c-1.941-2.356-5.201-5.031-7.553-7.337    l0.244-0.13l-3.364-3.208c1.905,1.225,3.842,3.86,6.714,6.634l-0.004-0.698c2.842,3.666,5.639,5.21,8.461,7.435    c-3.973-3.372-10.287-10.456-11.827-10.641l-1.922-2.622l-1.213-0.961c-1.43-1.956,0.711-0.64,4.072,2.564    c0.482,0.657,0.724,0.986,0.479,0.886c1.679,1.369,3.347,2.498,6.954,6.265l-2.151-1.783c4.565,4.615,8.873,8.655,10.786,9.886    c-6.482-6.772-12.968-13.32-19.207-19.526c-2.62-1.052-5.237-2.79-6.901-2.996c-4.31-4.041-10.079-9.609-13.438-13.502    l0.477,0.189c-1.695-1.844-3.365-3.436-4.807-4.712c-1.678-2.061,1.665,0.894,0.466-0.513l-6.225-5.735    c0.699,0.038,5.733,5.069,8.146,7.436c-0.479-0.423-1.444-1.278-1.196-0.942c2.644,2.916,8.384,7.533,9.123,9.226    c1.437,1.271-3.104-2.399,1.457,2.211c2.891,3.25,4.319,3.821,4.783,3.999c0.237-0.138-4.563-5.075-2.648-3.61    c-2.413-2.366-3.606-3.077-6.482-6.313c2.391,2.346,5.987,5.183,6.958,6.735c5.032,4.334,5.237,2.785,3.077,0.529    c0.251,0.801-8.881-8.204-3.099-1.705c-3.112-2.405-8.155-7.442-11.984-10.83l0.235,0.093l-4.568-4.392    c0.729,0.533,2.167,1.804,2.397,1.663l-6.706-5.705c3.829,3.157-1.932-2.398-3.373-4.136c-0.951-0.379-3.583-2.594-1.422-0.104    c2.407,2.822,1.677,1.367,4.076,3.723l-3.817-2.916l-0.245-0.332l-2.396-1.657c-4.559-4.611,2.861,1.146-3.375-4.369l0.262,1.268    c-6.728-6.877-14.897-16.178-19.936-20.752c1.612,1.04,2.656,1.165,1.106-0.931c1.986,2.159,6.168,6.306,9.188,9.23    c0.483,0.661-4.308-3.119-7.429-6.456c0.741,2.388,8.62,7.625,8.165,8.839c7.936,8.519,6.941,5.333,13.435,12.807    c0.469-0.276,2.167,1.804,2.863,1.842c-1.459-2.675-9.356-9.315-13.675-14.06c0.471,0.417,1.419,1.254,1.664,1.357    c-3.13-3.349-4.551-4.604-6.953-6.729l0.241,0.329c-4.318-3.591-2.168-2.726-4.332-5.216c-0.957-0.847-4.085-4.19-3.838-3.396    l-3.86-4.568l-0.213,0.619c-2.401-2.354-2.647-3.148-5.055-5.05l-0.472,0.272l5.774,6.033c-3.114-2.87-1.191-0.477-4.557-3.687    c2.04,1.633,1.442,0.932,0.332-0.267c-0.555-0.599-1.238-1.322-1.783-1.939c-0.272-0.309-0.511-0.591-0.681-0.818    c-0.088-0.116-0.148-0.208-0.207-0.302c-0.088-0.123-0.143-0.217-0.157-0.274c-0.569-0.512-1.138-1.023-1.673-1.559l-1.117-1.179    l-0.563-0.598c-0.188-0.2-0.308-0.43-0.466-0.646c0,0,0.206,0.277,0.413,0.555c0.254,0.254,0.509,0.507,0.509,0.507    c-0.154-0.213-0.3-0.414-0.44-0.606c-0.109-0.204-0.213-0.398-0.313-0.584c-0.197-0.372-0.417-0.689-0.529-1.04    c-0.141-0.337-0.273-0.651-0.402-0.958c-0.113-0.313-0.186-0.633-0.285-0.95c-0.226-0.63-0.287-1.323-0.377-2.147    c0.013-0.413,0.037-0.862,0.082-1.36c0.07-0.493,0.221-1.022,0.36-1.617c-0.146,0.512-0.288,1.007-0.426,1.491    c-0.079,0.498-0.148,0.987-0.207,1.471c-0.007,0.483,0.014,0.962,0.033,1.438c0.04,0.472,0.152,0.93,0.228,1.396    c0.224,0.91,0.523,1.819,1.032,2.658c0.201,0.444,0.547,0.841,0.88,1.258c0.337,0.414,0.684,0.84,1.042,1.28    c0.61,0.59,1.252,1.211,1.935,1.872c0.437,0.401,0.86,0.772,1.346,1.188c-0.331-0.284-0.703-0.603-1.124-0.964    c-0.144-0.117-0.6-0.547-0.971-0.892c-0.392-0.367-0.806-0.755-1.245-1.166c-0.873-1.002-1.918-2.05-2.555-3.273    c-0.601-1.249-1.058-2.594-1.178-3.898c-0.304-2.626,0.548-4.777,0.934-5.698c0.542-1.362,1.664-2.387,2.568-3.424    c0.887-0.965,2.006-2.195,2.407-2.496c1.117-1.003,2.238-1.961,3.449-3.13c-2.21,2.359-1.528,2.241-1.471,2.645    c0.028,0.202-0.1,0.534-0.824,1.371c-0.496,0.55-1.164,1.291-2.07,2.297c-0.538,0.581-1.146,1.238-1.834,1.981    c-0.298,0.392-0.536,0.842-0.833,1.3c-0.21,0.5-0.466,1.021-0.646,1.602c-0.021-0.37,0.583-1.852,1.018-2.312    c-0.876,0.761-1.912,3.005-1.652,5.632c0.085,1.309,0.587,2.623,1.204,3.795c0.663,1.146,1.682,2.078,2.479,2.938    c0.682,0.604,1.298,1.148,1.819,1.609c-0.247-0.493,0.344-0.066,0.426-0.115c0.051-0.016,0.11-0.015-0.105-0.288    c-0.228-0.285-0.678-0.792-1.478-1.652c-0.269-0.338-0.645-0.81-1.092-1.37c0.324,0.472,0.197,0.455-0.253,0.06    c-0.111-0.1-0.25-0.219-0.392-0.367c-0.122-0.159-0.259-0.34-0.411-0.54c-0.144-0.205-0.326-0.418-0.471-0.676    c-0.129-0.269-0.267-0.555-0.412-0.858c-0.511-1.231-0.902-2.9-0.608-4.639c0.286-1.737,1.047-3.436,2.419-4.666    c0,0-0.024,0.323-0.048,0.647c-0.033,0.31-0.007,0.623,0.005,0.628c-0.034-0.016,0.393-0.459,1.026-1.125    c0.622-0.653,1.451-1.523,2.28-2.393c1.236-1.202,2.472-2.403,2.472-2.403l-0.428,0.484c2.211-1.456,5.128-5.275,8.708-8.41    c2.214-2.633,11.679-11.765,7.065-8.378c3.38-2.646,5.558-5.758,8.767-9.125l-4.338,3.859c4.426-5.265,3.301-3.599,6.512-8.144    c0.552-0.232,1.548-0.964,0.93-0.008c6.541-6.479,16.003-15.61,19.342-19.909c4.614-4.563,6.024-4.592,12.192-11.302    c1.273-1.438-1.604,0.509,2.827-3.585c0.33-0.243-3.67,4.539,1.031-0.255c2.93-3.832,8.19-7.691,12.197-12.481    c2.484-2.159,6.452-6.25,5.97-5.054c-3.759,3.597-8.89,8.876-9.512,9.841c0.292-0.723-2.825,2.408-0.28-0.469    c-5.83,5.29-3.388,3.83-8.56,8.633c-0.201,0.487,2.959-2.169,3.901-3.366c0.51,0.464-9.6,10.07-4.582,6.221    c5.373-5.288,5.938-7.887,11.071-11.993c-1.555,2.148-4.702,4.793-6.542,7.657l3.992-3.6l2.403-3.107l-0.092,0.236    c7.15-6.258,5.699-6.704,11.453-12.946c-3.813,3.137-0.042-1.649-2.863,0.758c3.949-4.074,6.96-6.954,7.474-6.494    c-7.106,7.902,0.09,0.942-6.361,8.365c1.313-0.964-0.938,2.365,3.25-1.715c4.311-5.006-1.799,0.987,2.686-3.819    c0.318-0.231,0.647-0.472,0.556-0.238c1.883-2.39,2.584-2.402,4.89-5.268l-0.516,0.711c3.484-2.892,3.152-3.823,6.219-6.245    c-1.459,0.736,1.546-2.14,3.022-4.067c-2.919,2.646-4.944,3.632-10.403,9.149c-0.377,0.949,0.183,0.707-1.934,3.1l3.533-3.603    c-0.723,0.816-1.235,1.477-1.884,2.24l-3.575,3.278c4.141-4.549,1.842-2.862,3.391-5.006c4.101-3.851,3.202-3.359,5.795-5.766    c0.169,0.671,8.384-6.949,13.232-11.257c-0.717,0.706-1.642,1.616-2.142,2.107c-3.06,3.59,2.639-1.938,2.877-1.946l2.214-2.633    c-0.428,0.485-0.96,1.214,0.133,0.24c3.202-3.358,2.596-3.584,5.792-6.938c0.478-0.015-1.941,3.105,0.217,1.19    c0.904-0.5,3.677-2.201,7.824-6.757c0.22-0.396,1.299-1.574,2.568-2.92c-0.169,0.194-0.389,0.432-0.454,0.53l3.143-2.638    c-2.068,2.857-5.167,4.794-7.246,7.666l0.165,0.585c-1.925,1.928-4.379,4.706-5.388,6.103c3-2.873,3.521-3.59,6.727-6.952    c0.697-0.223-1.44,2.266-1.748,2.625l0.276-0.704c-4.227,3.606-5.496,6.215-10.441,11.021c-0.751,0.721-0.329,0.244-0.236,0.009    c-3.584,4.31-7.954,7.685-11.312,12l1.053-1.448c-2.431,2.792-7.187,8.252-11.938,13.708l0.104,0.187    c0.654-0.479-1.267,1.432-2.354,2.4l0.003-0.007c-2.39,2.729-4.687,5.351-6.564,7.496c0.733-0.554,1.632-1.301,2.598-2.225    c0.628-0.972,5.459-5.521,4.427-5.267c2.402-1.932,5.556-5.76,7.295-7.204c-3.149,2.649,1.651-2.386,1.945-3.109    c1.22-0.729,4.277-4.315,4.229-3.605c0.657-0.486-1.644,1.205-2.679,2.636c-2.729,3.345,5.831-5.289,2.341-1.213    c4.579-5.043,11.021-11.283,15.679-16.55l-2.913,2.643c2.254-2.158,7.402-7.453,7.952-7.684c-1.601,1.678-3.521,3.59-5.552,5.753    c0.271,0.475,5.037-5.042,5.501-5.045l5.474-6.708l-2.688,2.647c1.453-1.907,7.305-7.211,11.491-11.293    c-1.861,2.882-6.224,6.25-10.369,10.805c-2.966,3.354,2.444-1.458-0.424,1.654c0.895-0.656,2.832-2.621,3.665-3.712l1.272-1.087    c-2.203,3.132-8.287,9.009-11.869,13.389c0.3-0.399,0.552-0.756,0.608-0.92c-3.245,2.885-6.351,6.006-9.217,9.117    c1.728-1.435,2.253-2.159,3.103-3.117c0.228,0.002-2.544,2.873-3.484,4.067c2.915-2.645,0.792-0.245,2.628-1.927    c-1.7,1.921-3.199,3.355-5.454,5.513c-1.319,0.969,0.705-1.188,0.242-1.184c-2.134,2.41-3.723,2.899-6.782,6.49    c4.52-4.327-0.666,1.665-2.035,3.343l0.758-0.725c-1.134,1.672-2.313,2.873-3.528,3.596c1.699-1.921,3.528-3.596,2.739-3.355    c-1.185,1.208-2.365,2.412-3.637,3.848l1.033-1.429l-5.885,6c-0.699,1.183-1.931,3.095-2.397,4.275    c-1.645,1.207-3.447,3.375-4.715,4.811l0.528-0.73c-2.828,2.415-8.487,8.42-8.765,9.126c-2.064,1.682,11.877-14.6-1.163-1.163    c-5.03,5.035-2.452,3.817-5.088,6.925c0,0,0.092-0.231-0.238,0.009c-2.252,2.153-2.213,2.633-3.915,4.554    c1.424-1.217,3.343-3.126,3.861-3.841c-0.378,0.948-4.612,4.562-6.075,6.474c1.75-2.63-4.425,4.089-2.951,2.164    c-4.663,4.097-8.998,9.128-10.974,11.753c-3.525,2.42-5.139,5.286-10.219,9.854c0.758-0.725,2.021-2.153,3.117-3.131    c2.399-3.1-5.183,4.815-1.27,0.262c-0.851,0.96,0.122,0.25,0.995-0.733c1.584-1.663,2.959-3.346,2.391-3.097l-4.241,3.622    l1.288-1.457l-6.395,5.537c-0.092,0.233,0.556-0.239,0.886-0.482c-7.108,6.731-14.781,14.882-20.901,20.887    c-0.075,1.063-3.7,4.9-7.843,9.16c-1.037,1.063-2.104,2.157-3.157,3.237c-0.526,0.542-1.048,1.08-1.563,1.609    c-0.199,0.208-0.396,0.415-0.59,0.619l-0.335,0.369c-0.438,0.476-0.852,0.934-0.937,1.472c-0.109,0.521,0.026,1.01,0.265,1.329    c-0.348-0.33-0.657-0.674-0.937-0.863c-0.287-0.19-0.574-0.219-0.776,0.115c-0.028-0.445-0.041-1.189,0.41-1.924    c0.219-0.367,0.533-0.729,0.869-1.13c0.174-0.201,0.345-0.389,0.554-0.604c0.297-0.303,0.606-0.606,0.926-0.906    c0.554-0.237,3.793-3.117,2.006-0.966c6.734-6.959-1.36,0.494,0.293-1.895c-0.648,0.673-1.274,1.322-1.878,1.949    c-0.577,0.615-1.134,1.208-1.674,1.782c-0.711,0.846-1.483,1.517-1.821,2.387c-0.333,0.866-0.228,1.806,0.161,2.537    c0.378,0.756,1.084,1.21,1.648,1.665c0.248,0.193,0.493,0.384,0.735,0.573c0.388,0.337,0.773,0.671,1.156,1.004    c0.766,0.682,1.525,1.357,2.293,2.04l0.004,0.237l3.836,3.395c-2.889-3.02-2.183-3.434,1.429,0.57l-0.491-0.436    c1.937,2.407,6.733,6.65,10.089,10.08l2.625,1.977c3.361,3.435,2.905,4.184,3.648,5.649c5.284,5.369,8.854,7.95,12.931,11.44    c1.448,1.974,9.364,10.014,4.818,6.105c5.036,4.573,5.476,2.194,12.935,11.215l-2.392-1.885    c7.931,7.826,19.671,18.557,23.035,22.454c-3.818-1.995,8.913,10.768,9.42,13.062c-0.186-0.595,2.842,2.298,3.382,2.62    c0.544,0.753,1.522,1.935,2.853,2.896c-2.893-3.252,3.087,1.232-3.146-4.281c3.585,2.36,7.893,5.711,14.374,12.253L271.819,360    l-5.038-5.266c0.245,0.795-2.386-1.877-3.6-2.837c9.375,9.793-2.127-0.382,7.72,9.366c1.188,0.705,0.475,0.191,3.117,2.643    c-1.21-1.185-1.683-1.144,0.242,0.791l2.151,1.556c2.8,4.043-6.068-5.259-3.586-1.903c-4.076-3.49-10.785-9.886-10.04-8.189    c6.006,6.351,6.449,4.667,12.692,11.343l0.485,0.891c2.41,2.134,3.105,2.173,4.548,3.219c-0.003,0.228,0.487,0.892,1.914,2.384    c4.315,3.357,6.956,5.81,11.019,8.826c-9.813-9.027-7.689-8.417-17.762-17.79c1.679,1.369,8.637,8.101,9.572,8.006l-0.465,0.283    c3.355,2.967,6.707,5.935,10.555,10.027l-2.634-2.213c5.522,5.002,8.182,9.313,12.954,12.845    c-1.433-1.499-2.635-2.679-3.597-3.527c2.875,2.543,6.236,5.979,9.117,8.985l6.706,5.475c-0.238,0.132,3.61,4.003,1.453,2.437    c4.102,4.669,6.725,6.181,9.352,8.622c4.094,4.887-4.067-3.714-5.022-3.639c6.015,6.359,12.729,12.762,16.555,15.917    c-1.187-1.337-1.735-2.015-1.58-2.041c0.069,0.305,2.593,2.768,3.979,4.161l1.197,0.713l0.05,0.058l0.013,0.014l-0.128,0.129    h-0.001l-0.008,0.005l-0.021,0.02c-0.016,0.017-0.034,0.04-0.052,0.068c-0.002,0.005,0.009-0.02,0.001-0.006    c-0.021,0.042,0.008-0.024-0.007,0.013c-0.023,0.064-0.047,0.119-0.074,0.146c-0.011,0.01-0.059,0.076-0.077,0.071    c-0.011-0.001-0.024,0.002-0.044,0.009l-0.035,0.014c-0.029-0.014,0.006,0.056-0.086-0.03c0.044,0.048,0.057,0.058,0.056,0.05    l0.015,0.002l0.023,0.01c0.018,0.001,0.008,0.047,0.035,0.032c0.051-0.036,0.048,0.032,0.099-0.024    c0.056,0.022,0.119-0.125,0.14-0.124c0.001-0.031,0.001-0.048,0.006-0.05c-0.012,0,0.039,0.001-0.021,0.009    c-0.052,0.008-0.103,0.024-0.149,0.049c-0.048,0.024-0.092,0.057-0.13,0.096l-0.053,0.063c-0.006,0.01-0.063,0.079,0.005,0.018    l0.496-0.406l0.25-0.197l0.002-0.002c-0.163,0.147,0.367-0.331-0.364,0.33v-0.001h-0.001v-0.002l-0.001-0.002l-0.002-0.005    l0.001-0.005c0.003-0.005,0.02,0.002,0.051,0.015c0.001-0.011,0.075,0.02,0.134,0.017c0.04,0.036-0.003,0.035,0.038,0.083    c0.014,0.037-0.029,0.041-0.009,0.099l0.002,0.01l0.002,0.005v0.002c-0.308,0.277,0.419-0.378,0.343-0.31l-0.003,0.003    l-0.013,0.011l-0.099,0.088l-0.199,0.176l-0.401,0.351l-0.045,0.037l0.014-0.024l0.031-0.045c0.022-0.028,0.048-0.053,0.077-0.073    c0.051-0.041,0.139-0.063,0.178-0.066c-0.116,0.067-0.297,0.053-0.398-0.011c-0.029-0.01-0.069-0.008-0.078-0.055    c-0.011-0.013-0.026-0.02-0.047-0.022c0.007,0.021-0.056-0.042-0.114-0.103l-0.168-0.168c-0.445-0.444-0.869-0.866-1.264-1.259    c-0.793-0.781-1.481-1.434-2.02-1.88c1.017,0.957,1.893,1.811,2.666,2.59c0.192,0.196,0.379,0.387,0.562,0.572l0.268,0.276    c0.039,0.029,0.038,0.016,0.054,0.03c0.025,0.013,0.027,0.059,0.046,0.081c0.028,0.004,0.047,0.02,0.062,0.05    c0.007,0.048,0.044,0.032,0.064,0.051c0.025,0.008,0.039,0.064,0.069,0.067c0.057-0.012,0.11,0.096,0.175,0.075    c0.03,0.007,0.063,0.025,0.102,0.052c0.03-0.01,0.062-0.01,0.099-0.001c0.158,0.018-0.053,0.056-0.054,0.193l-0.006,0.051    c-0.004,0.022,0.07-0.043,0.102-0.061l0.248-0.173l0.252-0.176l0.126-0.089l0.064-0.045l0.031-0.021l0.008-0.006    c0.066-0.06-0.562,0.508-0.295,0.267l0,0l0.003-0.004c0.027-0.034,0.062-0.063,0.106-0.086c0.054-0.02,0.102-0.047,0.115-0.094    c0.188-0.118,0.231-0.366,0.273-0.632c0.033-0.121-0.046-0.326-0.038-0.383c0.002,0.021,0.015,0.038,0.039,0.049    c0.012,0.006,0.026,0.009,0.044,0.01c0.021,0.006,0.05,0.01-0.029-0.077c-0.102-0.125-0.206-0.253-0.312-0.383l-0.159-0.195    l-0.081-0.099l-0.021-0.025l-0.005-0.006c0.497,0.551,0.134,0.149,0.244,0.271l-0.012-0.011l-0.046-0.046    c-0.978-0.972-2.092-2.049-3.381-3.262c-0.007-0.238,1.913,1.23-0.012-0.701c-4.557-4.378-1.667-0.668-3.332-1.794    c1.795,1.645,3.056,2.904,4.079,4.04c0.512,0.567,0.964,1.104,1.394,1.644l0.633,0.814c-0.14-0.155,0.315,0.349-0.313-0.347    l0.001,0.001l0.002,0.004l0.004,0.007l0.009,0.014l0.017,0.027l0.034,0.056l0.067,0.111l0.135,0.223    c0.078,0.14,0.205,0.326,0.244,0.431c0.052,0.049-0.245-0.193-0.492-0.39c-0.065-0.052-0.13-0.104-0.19-0.152l-0.088-0.07    l-0.021-0.017l-0.01-0.008h-0.001v-0.001c0.151,0.168-0.34-0.375,0.34,0.376l-0.002-0.001l-0.003-0.001l-0.005-0.004l-0.041-0.026    c-0.104-0.067-0.174-0.112-0.174-0.112c-0.037-0.241-2.191-2.406-2.729-3.142l-0.957-0.155c0.7-0.187-2.417-3.98-5.299-6.53    c2.423,3.066,1.698,2.309,1.939,3.56c-4.298-3.34-3.838-4.778-8.626-8.552c0.464,0.178,4.307,3.809,1.187,0.471    c-2.653-2.692-2.643-1.99-4.546-3.673c2.389,1.649,2.145,0.856,4.771,2.605c4.796,4.703,1.911,1.921,6.714,6.402l-3.616-4.242    c4.084,3.964,3.349,2.503,3.822,2.693c-6.496-7.248-5.74-4.617-10.064-9.136c-2.385-1.878,4.088,4.195,0.488,1.126    c-4.08-4.188-1.184-0.701-5.984-5.182l0.946,0.607c-1.199-1.638-2.872-2.77-4.551-4.374c-1.917-1.693,0.76,3.329-6.687-4.068    c0.466,0.261,0.665,0.328,0.708,0.286l10.345,4.136c-7.527-7.513-16.107-16.266-24.608-25.182    c-1.443-2.658,6.717,5.715,6.457,4.908l3.849,4.097c-0.48,0.034-8.402-8.242-5.27-4.2c7.199,6.829,10.086,10.308,17.271,16.431    c-1.459-2.676-8.872-8.655-12.73-13.454c1.778,1.857,3.379,3.324,4.956,4.728c-3.985-4.145-8.25-8.58-12.783-13.295l-1.187-0.892    c3.049,3.185,5.153,5.393,5.409,5.693c-4.079-4.187-7.901-7.335-8.621-7.164l0.718,0.75l-1.632-1.354    C292.181,374.144,291.24,373.146,290.304,372.153z M327.237,103.123c-0.209,0.294-0.356,0.542-0.44,0.75    C326.882,103.656,326.671,103.783,327.237,103.123z M325.726,422.223c2.714,2.797,5.44,5.605,8.14,8.388    c1.349,1.392,2.69,2.777,4.021,4.15l0.997,1.026c0.138,0.156,0.392,0.372,0.629,0.569c0.245,0.188,0.461,0.419,0.738,0.561    c1.052,0.677,2.29,0.979,3.515,1.011c-1.103-0.107-2.168-0.389-3.025-0.972c-0.454-0.246-0.82-0.592-1.167-0.938    c-0.394-0.356-0.547-0.619-0.815-0.922c-0.96-1.175-1.845-2.258-2.621-3.208c-1.539-1.91-2.611-3.313-2.915-3.891    c-0.303-0.577,0.163-0.329,1.7,1.061c0.77,0.695,1.806,1.676,3.148,2.982c0.668,0.656,1.416,1.391,2.248,2.208    c0.209,0.225,0.416,0.376,0.626,0.546l0.318,0.26l0.374,0.192l0.38,0.202l0.424,0.123c0.143,0.039,0.284,0.094,0.433,0.124    c0.151,0.014,0.305,0.027,0.46,0.042c0.005,0.063,1.29-0.119,1.274-0.164c-0.628,0.071-1.396,0.108-2.168-0.188    c-0.402-0.091-0.76-0.348-1.138-0.565c-0.17-0.142-0.342-0.287-0.518-0.434c-0.18-0.153-0.381-0.38-0.575-0.569    c-1.574-1.592-3.331-3.323-5.054-4.983c-1.524-1.212-4.781-3.74-7.657-5.94c-1.443-1.093-2.787-2.109-3.765-2.849    c-0.983-0.73-1.608-1.174-1.609-1.125c0.724,1.216,2.405,2.36,4.092,4.198L325.726,422.223z M323.28,416.832    c-3.025-3.223-2.509-2.316-3.169-2.626c1.121,1.077,2.241,2.153,3.349,3.217C323.088,416.963,322.946,416.696,323.28,416.832z     M320.122,414.568c0.347,0.355,0.638,0.663,0.771,0.844L320.122,414.568z M317.797,398.267c0.144,0.135,0.195,0.183,0.331,0.31    c-0.725-0.751-1.45-1.504-2.208-2.289C316.192,396.615,316.74,397.207,317.797,398.267z M323.707,405.038l1.063,0.42    c-0.676-0.7-1.365-1.414-2.071-2.146C322.79,403.695,322.911,404.069,323.707,405.038z M343.031,426.472    c0.418,0.226,1.001,0.662,1.651,1.188c0.323,0.267,0.666,0.55,1.016,0.839l0.261,0.221l0.131,0.11l0.065,0.055l0.003,0.002    c-0.202-0.223-0.056-0.061-0.1-0.109l0.004,0.003l0.007,0.008l0.016,0.016l0.029,0.031l0.475,0.489    c0.196,0.183,0.225,0.279,0.295,0.382c0.065,0.108,0.154,0.19,0.225,0.312c0.098,0.278,0.281,0.523,0.336,0.769    c0.064,0.24,0.157,0.451,0.22,0.615c0.043,0.164,0.102,0.28,0.176,0.326c0.063,0.171,0.145-0.008,0.214-0.402    c-0.005-0.2-0.01-0.449-0.017-0.728c-0.033-0.277-0.134-0.573-0.202-0.889c-0.069-0.156-0.155-0.301-0.229-0.456    c-0.082-0.153-0.125-0.311-0.278-0.474l-0.392-0.488l-0.099-0.124c0.035,0.035-0.055-0.055-0.075-0.077l-0.224-0.228    c-0.598-0.611-1.215-1.241-1.849-1.89c-0.11,0.021-0.425-0.174-0.909-0.542c1.212,1.322,1.947,2.279,1.161,2.04    c-2.662-3.854-3.344-2.495-6.712-6.169C336.795,420.494,341.837,425.531,343.031,426.472z M240.948,176.815    c0.139-0.061,0.583-0.305,1.189-0.664l-2.26,2.7c-4.521,4.328-8.706,7.233-12.139,11.766c-2.002,1.726-3.292,2.432-4.486,3.145    c0.93-0.895,1.807-1.726,2.555-2.399C236.168,179.392,232.478,186.39,240.948,176.815z M189.291,226.905    c0.429-0.484,0.52-0.72,0.52-0.72c-9.07,10.703-16.974,19.08-22.335,24.378c1.357-0.71,6.389-5.24,8.793-7.376l-1.643,2.38    l-1.546,0.966l-3.158,3.828c1.225-0.729,3.994-3.601,6.07-5.296c0.094-0.234,5.701-6.702,7.161-8.617l-5.079,4.569    c1.406-1.2,7.72-7.684,10.163-10.315c-0.135-0.235-4.793,3.853-4.942,4.805c-0.794,0.247,4.244-4.798,0.762-1.904    c3.485-4.071,9.74-9.837,12.665-12.49l0.933-0.011c3.239-2.881,1.512-2.623,5.414-5.992c-4.379,4.559,1.261-0.25-2.259,3.34    c1.309-0.961,0.511,0.464,4.038-3.133c2.355-3.576,4.137-3.372,6.402-6.714c2.063-1.682-1.648,2.383,2.119-1.221    c3.906-4.547,3.433-4.533,3.25-5.239c-4.077,3.828-3.863,5.018-7.204,8.143l5.669-7.19c-1.293,1.077-2.181,1.943-2.886,2.709    c1.248-1.336,2.233-2.546,3.017-3.641c0.454-0.617,0.873-1.186,1.258-1.71c-3.648,3.64-6.895,6.866-7.656,7.249l0.287-0.718    c-1.488,1.092-3.436,3.35-4.248,4.477c-3.239,3.287-6.198,6.846-7.19,7.28l1.042-1.436    C194.756,221.381,194.335,221.855,189.291,226.905z M264.7,361.486c-1.641-3.22-3.623-6.598-15.105-17.804l0.947,0.838    c-5.221-6.213-11.802-10.491-18.207-17.997c3.673,3.078,3.464,2.923,7.871,5.968l-3.844-3.397    c1.433,0.573-2.401-2.816-5.038-5.493l2.856,1.833c1.448,1.742,5.529,5.93,5.524,5.692c-0.962-0.849,4.813,6.104,8.418,9.412    c-0.01-0.703-7.449-7.862-3.624-5.169c-3.11-2.635-3.121-3.337-6.245-6.218c3.117,2.643,1.185,0.24,3.581,2.132l-5.042-4.806    c-0.013-0.244,7.427,6.914,3.819,2.454c-2.154-1.791-7.194-7.287-7.662-7.009l-0.006-0.235c-3.61-3.771-2.151-1.096-6.47-5.84    c-0.241,0.134,0.493,1.128,2.155,2.713c1.456,1.289,1.922,1.242,4.801,4.017c0.975,1.559-3.373-3.445-1.904-0.99    c0.729,1.221,7.674,7.249,5.052,5.736l-3.604-3.763c-0.468,0.278-3.114-2.41-3.34-2.034c-2.39-2.115-4.095-4.662-6.721-6.638    c-1.197-0.714,0.022,1.403-3.588-2.599c-2.422-3.526-11.293-12.183-14.655-15.387l-3.111-2.634c0.015,0.473,5.52,5.457,3.378,3.91    l-4.57-4.39l0.489,0.201c-1.453-1.516-3.125-2.88-4.562-4.152c1.665,1.127,4.785,4.464,4.533,3.434    c-2.026-2.18-2.203-2.645-4.212-4.506c0.45,0.396,0.852,0.721,0.853,0.612c-4.089-4.426-4.546-3.676-5.74-4.617    c-4.786-3.773,3.845,4.784,2.897,4.638l-12.711-12.283c1.194,0.941,2.394,1.89,2.151,1.327c-2.886-3.244,0.232-0.371-4.09-4.655    c-0.226,0.838-5.751-5.088-9.098-7.821c-1.202-1.638-1.451-1.974,1.662,1.126c0.005-0.686-4.35-4.775-5.729-6.217    c-0.146-0.117-0.305-0.252-0.531-0.453c-0.407-0.364-0.945-0.781-1.404-1.277c-0.23-0.248-0.475-0.488-0.624-0.776    c-0.169-0.272-0.353-0.525-0.435-0.788c0.154,0.829,0.22,1.076-0.141,0.718c-0.078-0.096-0.207-0.219-0.302-0.407    c-0.091-0.19-0.194-0.427-0.31-0.712c-0.121-0.284-0.142-0.64-0.222-1.036c-0.031-0.396-0.022-0.856,0.053-1.349l-0.035-0.24    c-0.302,1.039-0.347,2.288,0.074,3.473c0.394,1.208,1.341,2.147,2.235,3.144c0.91,0.961,1.828,1.932,2.724,2.879    c0.868,0.896,1.714,1.769,2.507,2.587c1.604,1.62,3.038,2.981,4.089,3.795l-0.954-0.61c4.811,5.407,11.738,10.497,13.442,13.505    c-0.476,0.041,0.967,1.086,0.505,1.37l4.053,3.471l-0.952-0.613l6.483,6.314l-0.239-0.1c3.388,2.693,6.044,4.804,8.166,6.489    c0.17-0.155,0.022-0.403,1.156,0.491c1.098,0.938,1.882,1.696,2.549,2.405c0.006,0.005,0.006,0.005,0.007,0.004l-0.002,0.002    c1.522,1.617,2.335,2.896,4.173,4.926l-5.99-5.91c-0.761-0.209-0.541,0.584,2.181,3.692c-1.203-1.182-1.917-1.465-0.473,0.042    c0.234,0.091,4.076,3.723,2.872,2.079c5.753,5.552,14.179,15.428,23.286,23.485c-6.481-5.851,4.571,5.312-2.387-1.42    c4.335,5.219,4.546,3.676,9.347,8.615c0.256,0.574-2.631-2.673-4.063-3.479c7.92,8.274,14.376,12.949,22.076,20.917l-0.01,0.68    C261.242,358.226,262.938,359.824,264.7,361.486z M280.626,376.553c1.547,1.469,3.115,2.958,4.71,4.472    c-0.148-0.155-0.286-0.299-0.44-0.461l4.807,4.252c-2.648-2.918-4.104-5.13-0.032-1.411c-0.47-0.186,0.494,1.128-0.943-0.144    c2.403,2.818,7.931,8.745,6.958,6.731c-5.509-4.524-0.506-1.832-4.813-5.408c2.454,1.775,4.397,4.024,6.546,5.87    c-2.363-1.796-0.158,1.128,2.83,4.387c1.443,1.276,5.044,5.036,7.44,7.158c-0.487-1.124,1.663,0.661-1.938-3.101    c1.434,1.268,3.591,3.291,5.769,5.797c-0.983-0.874-2.646-2.458-2.649-2.23c1.219,1.804,3.002,3.561,3.853,4.662    c0.796,0.762,1.599,1.53,2.38,2.278c-0.199-0.256-0.361-0.49-0.457-0.677l2.869,2.307c-3.597-3.297-1.446-1.74-1.216-1.882    c-0.465,0.28,2.171,2.267,3.363,3.435l-2.169-2.957c1.436,1.041,4.088,4.658,3.831,3.621c-5.28-5.593-7.438-7.616-12.472-12.416    l1.689,2.302c-5.764-5.33-2.896-3.946-9.136-10.155c-2.866-2.309-9.38-9.342-10.068-8.91c0.951,0.609-3.378-4.374-5.765-6.254    c-2.869-1.846-10.067-8.906-8.142-6.514c1.921,1.933,4.794,4.244,6.01,6.126l-3.844-3.63l2.174,2.73    C280.604,375.165,280.454,375.56,280.626,376.553z M337.319,410.476c-0.039-0.044-0.09-0.1-0.137-0.152    c0.055,0.056,0.107,0.11,0.158,0.162L337.319,410.476z" fill="#202020"/><path d="M295.102,120.339c0.948-1.201,3.626-3.838,2.831-3.591C298.299,116.985,293.232,121.541,295.102,120.339z" fill="#202020"/><path d="M298.574,117.456c0.115-0.259-0.13-0.244,1.052-1.447l-3.206,3.359L298.574,117.456z" fill="#202020"/><path d="M303.964,116.185c1.468-1.917,2.414-3.117,5.092-5.753c1.732-0.263-4.145,4.555-4.663,6.445    c4.938-4.801,5.792-6.938,9.735-11.006C311.836,107.549,303.552,115.48,303.964,116.185z" fill="#202020"/><polygon fill="#202020" points="302.73,119.277 305.273,116.403 304.962,116.627 302.417,119.503   "/><path d="M237.682,171.554c-0.474,0.014-1.936,1.928-2.785,2.889C235.648,173.721,236.739,172.752,237.682,171.554z    " fill="#202020"/><path d="M271.098,168.781l20.438-20.882C285.656,153.907,280.227,159.455,271.098,168.781z" fill="#202020"/><path d="M170.624,241.615c5.331-5.764,7.399-8.625,12.951-14.378c-7.896,6.97-9.095,10.54-15.809,16.306    L170.624,241.615z" fill="#202020"/><path d="M170.749,237.826c1.352-0.487-3.774,4.787-2.651,4.299c3.633-3.844,1.329-2.153,4.759-5.509    L170.749,237.826z" fill="#202020"/><polygon fill="#202020" points="203.039,219.839 201.582,221.746 202.854,220.309   "/><polygon fill="#202020" points="170.267,272.925 169.556,272.41 172.201,275.328   "/><path d="M168.844,271.896l0.712,0.514L168.844,271.896z" fill="#202020"/><polygon fill="#202020" points="201.805,222.928 204.398,220.52 205.436,219.085   "/><path d="M177.418,242.674l2.098-2.375C179.099,240.769,175.861,243.651,177.418,242.674z" fill="#202020"/><polygon fill="#202020" points="187.071,290.096 189.958,292.652 189.723,292.331 186.845,289.785   "/><path d="M168.83,258.353c-0.141-0.365,0.112-0.207,0.429,0.063c0.148,0.134,0.324,0.293,0.488,0.44    c0.262,0.245,0.503,0.471,0.658,0.615c0.186,0.166,0.277,0.228,0.202,0.104c-0.037-0.062-0.116-0.17-0.245-0.334    c-0.107-0.143-0.376-0.452-0.428-0.553c-0.188-0.168-0.342-0.305-0.465-0.414C168.576,257.523,168.801,258.048,168.83,258.353z" fill="#202020"/><path d="M198.725,292.76c0.367,0.367,0.766,0.742,1.175,1.077C199.437,293.413,199.049,293.056,198.725,292.76z" fill="#202020"/><path d="M198.725,292.76c-1.185-1.186-2.243-2.497-3.152-3.214C196.901,291.174,197.495,291.655,198.725,292.76z" fill="#202020"/><path d="M212.38,306.26l-1.051-1.099c1.262,0.934,0.717,0.438-0.395-0.411c-1.15-1.127-1.191-0.957-1.398-1.021    c-0.27-0.187-0.539-0.371-0.83-0.571c0.396,0.306,0.752,0.58,1.054,0.813C211.522,305.738,212.614,306.799,212.38,306.26z" fill="#202020"/><path d="M257.211,362.301c-3.844-4.093-4.811-5.179-4.337-5.222c-3.685-3.85-3.545-2.82-5.92-4.989    C251.266,356.302,252.019,357.293,257.211,362.301z" fill="#202020"/><path d="M246.954,352.09c-0.484-0.471-0.947-0.921-1.509-1.468C246.058,351.25,246.528,351.699,246.954,352.09z" fill="#202020"/><polygon fill="#202020" points="199.333,287.568 202.195,289.639 201.235,288.789   "/><path d="M262.971,368.319c-0.72-0.752-1.91-1.92-2.401-2.588C260.099,365.778,263.69,369.07,262.971,368.319z" fill="#202020"/><path d="M252.727,347.952c-0.245-0.561-2.878-3.005-3.852-4.1C250.325,345.368,251.057,347.052,252.727,347.952z" fill="#202020"/><path d="M275.421,378.64c-0.719-0.753-1.677-2.059-0.974-1.782C273.252,375.916,271.35,374.925,275.421,378.64z" fill="#202020"/><polygon fill="#202020" points="259.934,355.252 259.454,354.596 256.573,352.047   "/><path d="M254.059,341.752c-3.362-2.746,4.102,5.589-1.419,0.589c6.464,7.108-0.084-0.957,4.872,4.099    C254.684,343.404,253.637,341.578,254.059,341.752z" fill="#202020"/><path d="M257.512,346.439c0.409,0.442,0.862,0.913,1.361,1.415C258.329,347.29,257.891,346.834,257.512,346.439z" fill="#202020"/><path d="M298.549,391.377c-0.476-0.411-0.814-0.679-1.131-0.922C297.793,390.778,298.158,391.08,298.549,391.377z" fill="#202020"/><path d="M273.752,362.172l-5.04-4.115c3.365,2.75,11.04,10.462,11.021,9.521c-2.397-2.584-5.517-5.46-6.947-6.492    L273.752,362.172z" fill="#202020"/><path d="M317.949,423.071l-2.161-1.796l2.416,2.524C317.567,423.022,319.184,423.964,317.949,423.071z" fill="#202020"/><path d="M318.672,424.286l-0.468-0.486C318.298,423.916,318.446,424.072,318.672,424.286z" fill="#202020"/><path d="M289.667,382.941c-1.446-1.512-2.642-2.683-4.073-3.949C286.067,379.638,289.67,383.405,289.667,382.941z" fill="#202020"/><polygon fill="#202020" points="332.547,436.33 329.203,433.144 332.8,436.672   "/><polygon fill="#202020" points="351.455,421.469 350.98,420.819 348.108,418.277 348.592,418.936   "/><path d="M336.136,423.36c-2.164-2.263-4.306-3.577-3.814-2.911l4.31,4.272c-0.729-1.452-1.201-1.18-3.598-3.759    L336.136,423.36z" fill="#202020"/><path d="M237.706,309.074c1.201,0.717,5.754,5.55,5.771,6.026c-0.73-0.531-3.371-2.98-1.918-1.236l4.308,3.12    c4.569,5.311-4.535-2.975-7.185-5.204c4.956,5.109,6.838,6.21,12.188,11.566c-1.526-1.633-2.375-2.778-3.082-3.74    c0.236-0.6,5.039,4.573,8.638,8.106c-2.089-2.452-0.623-1.292,1.196,0.198c0.311,0.284,0.532,0.458,0.7,0.571    c0.213,0.172,0.414,0.335,0.62,0.503l-0.428-0.428c0.077-0.017,0.039-0.167-0.191-0.553c-3.114-2.871-5.053-5.509-6.974-7.439    c1.224,2.582-6.717-6.403-9.348-8.615l-2.863-2.729l-1.047-1.044c-0.136-0.285,0.255-0.081,1.985,1.379    c-1.465-1.196-5.857-5.683-5.666-5.055l-10.141-10.121c-0.288-0.343-0.568-0.693-0.753-0.976    c-0.394-0.308-0.488-0.332-0.476-0.251c-12.413-12.385-24.825-24.769-37.209-37.153l0.146-0.178    c-0.087,0.057-0.19,0.115-0.306,0.178c0.03,0.168,0.069,0.4,0.252,0.691c-0.561-0.109-0.465,0.027-0.23,0.297l0.084,0.098    c0.039,0.044,0.006,0.018,0.21,0.229c0.299,0.313,0.577,0.611,0.795,0.861c0.437,0.502,0.635,0.814,0.281,0.674    c-0.417-0.34-0.866-0.736-1.323-1.162c-0.303-0.288-0.272-0.247-0.353-0.321l-0.177-0.173c-0.227-0.238-0.4-0.487-0.473-0.664    c-0.236-0.021-0.32,0.099-0.37,0.263c-0.054,0.159-0.072,0.365-0.29,0.405c0.199,0.266,0.411,0.505,0.618,0.708    c0.056,0.052,0.811,0.771,1.261,1.166c1.003,0.892,1.901,1.591,2.797,2.283c1.793,1.385,3.585,2.74,6.229,5.539    c-0.474,0.043-2.382-1.413,1.215,2.114l-0.96-0.85c5.993,5.415,3.86,5.028,8.159,7.91l-0.467,0.278    c2.869,2.307,7.905,7.339,10.793,10.125l-0.241-0.098c8.385,7.532,4.558,4.377,13.673,13.135l-4.548-3.678    c2.903,3.263,4.071,3.485,6.236,5.747c-0.23-0.087,0.01,0.699-2.148-1.323l11.507,10.18    C241.071,312.741,237.95,309.635,237.706,309.074z" fill="#202020"/><path d="M250.87,323.346c0.554,0.594,1.198,1.254,1.982,2.009C252.114,324.607,251.479,323.964,250.87,323.346z" fill="#202020"/><path d="M186.291,255.502l-0.313,0.32C186.115,255.729,186.214,255.645,186.291,255.502z" fill="#202020"/><path d="M267.227,338.075c-1.688-2.073,1.678,1.138,2.148,1.322l-6.741-6.728c-0.113,0.174-0.94-0.331-0.937-0.064    L267.227,338.075z" fill="#202020"/><path d="M260.955,330.45c-0.328-0.128-1.13-0.752-2.014-1.465l3.692,3.685    C262.719,332.539,262.404,332.027,260.955,330.45z" fill="#202020"/><polygon fill="#202020" points="254.003,338.828 252.798,337.649 250.884,335.956   "/><path d="M235.989,319.552c1.206,1.642,4.073,4.178,5.032,5.025C237.901,321.47,239.333,322.737,235.989,319.552z" fill="#202020"/><polygon fill="#202020" points="237.503,325.732 234.379,322.854 234.615,323.177   "/><path d="M206.88,231.978c0.483-0.5,0.953-0.985,1.442-1.491C207.649,231.157,207.221,231.606,206.88,231.978z" fill="#202020"/><path d="M184.16,255.408c1.032-0.718,1.06-0.569,0.958-0.313c-0.118,0.272-0.422,0.709-0.392,0.905    c0.287,0.136,0.499,0.156,0.672,0.062c-0.034-0.021-0.068-0.042-0.088-0.062c0.057-0.167,0.147-0.366,0.27-0.598l0.152,0.135    c0,0,0.164-0.187,0.327-0.374c1.051-1.075,2.102-2.149,2.102-2.149c-1.221,0.729-1.968,1.446-2.015,0.975    c6.443-6.241,2.306-1.692,7.285-6.02l7.042-7.136l-0.497,0.651c0.591-0.603,0.823-0.898,0.985-1.146l23.729-24.051    c4.141-4.551-2.869,1.939-0.043-1.647c-5.037,5.039-12.797,12.25-12.71,13.193c0.098-0.24,0.289-0.716-0.793,0.244l-2.489,3.338    l2.914-2.643c-2.507,3.353-12.062,12.719-14.035,14.167c5.236-5.524,2.027-3.333,9.799-10.552    c-0.467,0.206-2.069,1.348-0.453-0.411c-4.316,4.466-8.5,8.608-12.688,12.826c-2.094,2.109-4.188,4.236-6.301,6.433    c-0.526,0.551-1.055,1.104-1.587,1.662l-0.797,0.842l-0.385,0.409l-0.118,0.145C184.692,254.677,184.405,255.054,184.16,255.408z" fill="#202020"/><path d="M269.327,169.745l-0.023,0.116C269.438,169.677,269.471,169.607,269.327,169.745z" fill="#202020"/><path d="M266.316,172.628l-3.775,4.786l6.634-6.714l0.13-0.839c-0.5,0.679-2.66,3.199-3.705,3.967L266.316,172.628    z" fill="#202020"/><path d="M257.876,182.689c3.296-3.597,2.691-3.827,0.621-2.137c2.972-3.359,2.118-1.222,3.857-3.841    c-0.372-0.23-4.097,3.848-4.938,4.799L257.876,182.689z" fill="#202020"/><polygon fill="#202020" points="232.227,207.899 233.024,206.757 230.59,209.099   "/><path d="M233.024,206.757l2.417-2.324c-0.292,0.036-0.58,0.072-1.054,0.372L233.024,206.757z" fill="#202020"/><path d="M241.78,198.334c1.034-0.972,2.168-2.059,3.53-3.398L241.78,198.334z" fill="#202020"/><path d="M238.963,200.938l0.135-0.025l2.682-2.579C240.773,199.265,239.869,200.101,238.963,200.938z" fill="#202020"/><path d="M235.441,204.433c0.677-0.093,1.435-0.237,4.78-3.745l-1.123,0.224L235.441,204.433z" fill="#202020"/><polygon fill="#202020" points="216.117,303.466 213.241,300.921 213.483,301.253 216.357,303.796   "/><path d="M200.745,287.56c-0.721-0.619-1.283-1.073-1.8-1.479C199.683,286.755,200.293,287.267,200.745,287.56z" fill="#202020"/><path d="M187.123,277.93c-2.894-3.482,4.787,4.009-0.987-2.025c-0.247-0.794,2.874,1.621,5.518,4.537    c-0.479,0.036-2.874-2.544-1.428-0.572c2.144,1.548,2.644,2.453,2.388,1.422c3.348,2.864,3.97,2.934,6.331,4.789    c-3.926-3.583-11.411-11.865-16.674-16.133c-3.093-2.159-2.137,0.07-2.822,0.733C179.686,271.235,186.421,278.12,187.123,277.93z" fill="#202020"/><path d="M191.467,283.619c1.442,1.509,1.92,1.933,2.881,2.782C194.335,285.927,192.669,284.801,191.467,283.619z" fill="#202020"/><path d="M186.754,243.243c0.186-0.377,2.736-3.166,1.997-2.758l-3.926,4.168    C185.79,243.72,186.242,243.502,186.754,243.243z" fill="#202020"/><path d="M183.101,246.48l1.723-1.827C184.372,245.089,183.836,245.651,183.101,246.48z" fill="#202020"/><path d="M187.005,243.11c-0.083,0.044-0.159,0.084-0.251,0.133C186.717,243.321,186.748,243.33,187.005,243.11z" fill="#202020"/><path d="M251.768,188.681c0.128,0.242,1.821-1.672,2.671-2.632C253.688,186.77,252.594,187.743,251.768,188.681z" fill="#202020"/><path d="M318.93,120.064l1.74-1.446C320.019,119.094,319.687,119.339,318.93,120.064z" fill="#202020"/><path d="M338.43,90.459c0.011-0.082,0.098-0.23,0.229-0.417C338.523,90.224,338.443,90.365,338.43,90.459z" fill="#202020"/><path d="M338.658,90.042c0.935-1.243,4.535-4.364,5.509-5.806l-0.081,0.225c0,0,0.527-0.597,1.055-1.194    c0.132-0.149,0.264-0.298,0.387-0.438c0.059-0.067,0.131-0.143,0.17-0.196c0.025-0.043,0.049-0.084,0.07-0.121    c0.092-0.141,0.153-0.235,0.153-0.235c-0.111,0.217-0.956,1.04-1.644,1.738c-0.724,0.737-1.506,1.533-2.26,2.301    C340.519,87.86,339.156,89.32,338.658,90.042z" fill="#202020"/></g></g></svg>